<svg xmlns="http://www.w3.org/2000/svg" xmlns:xlink="http://www.w3.org/1999/xlink" width="500" zoomAndPan="magnify" viewBox="0 0 375 374.999991" height="500" preserveAspectRatio="xMidYMid meet" version="1.0"><defs><clipPath id="256c666717"><path d="M 15.425781 15.425781 L 359.570312 15.425781 L 359.570312 359.570312 L 15.425781 359.570312 Z M 15.425781 15.425781 " clip-rule="nonzero"/></clipPath><clipPath id="47ff299b6d"><path d="M 17 265.929688 L 358 265.929688 L 358 359.679688 L 17 359.679688 Z M 17 265.929688 " clip-rule="nonzero"/></clipPath><clipPath id="7c0ea6dc12"><path d="M 58 15.425781 L 306 15.425781 L 306 257 L 58 257 Z M 58 15.425781 " clip-rule="nonzero"/></clipPath><clipPath id="156722b0ab"><path d="M 101 87 L 320.910156 87 L 320.910156 359.675781 L 101 359.675781 Z M 101 87 " clip-rule="nonzero"/></clipPath><clipPath id="f4db1005a3"><path d="M 286 52 L 330 52 L 330 95 L 286 95 Z M 286 52 " clip-rule="nonzero"/></clipPath><clipPath id="3f40c754e7"><path d="M 293.003906 50.519531 L 332 75.855469 L 311.976562 106.671875 L 272.984375 81.339844 Z M 293.003906 50.519531 " clip-rule="nonzero"/></clipPath><clipPath id="ee90fb248a"><path d="M 293.003906 50.519531 L 332 75.855469 L 311.976562 106.671875 L 272.984375 81.339844 Z M 293.003906 50.519531 " clip-rule="nonzero"/></clipPath></defs><g clip-path="url(#256c666717)"><path stroke-linecap="butt" transform="matrix(0.75, 0, 0, 0.75, 15.426711, 15.426706)" fill="none" stroke-linejoin="miter" d="M -0.00123904 -0.00123304 L 458.858166 -0.00123304 L 458.858166 458.858172 L -0.00123904 458.858172 Z M -0.00123904 -0.00123304 " stroke="#000000" stroke-width="6" stroke-opacity="1" stroke-miterlimit="4"/></g><g clip-path="url(#47ff299b6d)"><path fill="#000000" d="M 247.191406 265.945312 L 247.191406 280.148438 L 245.773438 280.148438 L 244.355469 292.929688 L 242.933594 292.929688 L 242.933594 305.714844 L 241.515625 305.714844 L 241.515625 346.902344 L 231.578125 346.902344 L 231.578125 341.222656 L 225.902344 341.222656 L 225.902344 331.277344 L 214.546875 331.277344 L 214.546875 339.800781 L 213.128906 339.800781 L 213.128906 344.0625 L 207.453125 344.0625 L 207.453125 327.019531 L 204.613281 327.019531 L 204.613281 322.757812 L 196.097656 322.757812 L 196.097656 291.511719 L 184.742188 291.511719 L 184.742188 295.769531 L 181.902344 295.769531 L 181.902344 307.132812 L 179.066406 307.132812 L 179.066406 294.351562 L 169.128906 294.351562 L 169.128906 302.871094 L 167.710938 302.871094 L 167.710938 314.234375 L 166.289062 314.234375 L 166.289062 322.757812 L 160.613281 322.757812 L 160.613281 312.816406 L 159.195312 312.816406 L 159.195312 308.554688 L 154.9375 308.554688 L 154.9375 300.03125 L 146.417969 300.03125 L 146.417969 285.832031 L 145 285.832031 L 145 300.03125 L 136.484375 300.03125 L 136.484375 311.394531 L 125.128906 311.394531 L 125.128906 317.074219 L 120.871094 317.074219 L 120.871094 309.972656 L 103.839844 309.972656 L 103.839844 318.496094 L 99.582031 318.496094 L 99.582031 321.335938 L 98.164062 321.335938 L 98.164062 328.4375 L 93.902344 328.4375 L 93.902344 309.972656 L 89.644531 309.972656 L 89.644531 300.03125 L 86.808594 298.328125 L 86.808594 281.566406 L 85.386719 281.566406 L 85.386719 297.472656 L 82.550781 295.769531 L 82.550781 302.871094 L 76.871094 305.714844 L 76.871094 321.335938 L 75.453125 321.335938 L 75.453125 331.277344 L 71.195312 331.277344 L 71.195312 322.757812 L 68.355469 311.394531 L 65.515625 322.757812 L 65.515625 325.597656 L 59.839844 325.597656 L 59.839844 339.800781 L 55.582031 339.800781 L 55.582031 311.394531 L 41.390625 311.394531 L 41.390625 334.121094 L 34.292969 334.121094 L 34.292969 328.4375 L 32.871094 328.4375 L 32.871094 319.917969 L 21.519531 319.917969 L 21.519531 327.019531 L 17.261719 327.019531 L 17.261719 359.6875 L 357.902344 359.6875 L 357.902344 317.074219 L 342.289062 317.074219 L 342.289062 332.699219 L 330.933594 332.699219 L 330.933594 327.019531 L 321 327.019531 L 321 318.496094 L 315.320312 318.496094 L 315.320312 302.871094 L 298.289062 305.714844 L 298.289062 327.019531 L 282.675781 327.019531 L 282.675781 329.859375 L 279.835938 329.859375 L 279.835938 319.917969 L 267.0625 319.917969 L 267.0625 338.382812 L 262.804688 338.382812 L 262.804688 332.699219 L 254.289062 332.699219 L 254.289062 305.714844 L 252.871094 305.714844 L 252.871094 292.929688 L 251.449219 292.929688 L 250.03125 280.148438 L 248.613281 280.148438 L 248.613281 265.945312 Z M 247.191406 265.945312 " fill-opacity="1" fill-rule="evenodd"/></g><path fill="#ffdab9" d="M 225.339844 17.773438 C 225.339844 17.773438 220.320312 117.949219 228.207031 128.609375 C 232.621094 134.617188 237.507812 140.351562 242.71875 145.746094 L 246.195312 149.320312 L 268.40625 172.191406 L 268.40625 172.238281 L 274.179688 178.160156 L 274.042969 178.160156 C 280.476562 184.167969 286.347656 191.546875 290.710938 200.796875 C 294.140625 207.886719 298.460938 218.128906 302.074219 226.953125 C 303.109375 229.394531 303.578125 231.878906 303.578125 234.371094 C 303.578125 241.886719 299.164062 249.023438 291.785156 252.21875 C 285.777344 254.800781 279.109375 254.144531 273.847656 250.855469 L 273.847656 250.808594 C 271.359375 249.308594 269.203125 247.195312 267.558594 244.515625 C 260.75 233.339844 251.074219 217.183594 242.058594 201.402344 C 239.195312 196.328125 236.371094 191.304688 233.789062 186.515625 L 162.503906 201.304688 L 160.34375 201.773438 L 123.851562 209.339844 L 108.777344 212.484375 L 61.765625 222.25 C 61.765625 222.113281 61.765625 222.015625 61.816406 221.921875 C 58.261719 219.585938 62.296875 176.082031 77.957031 125.613281 C 92.710938 78.066406 89.71875 17.773438 89.71875 17.773438 Z M 225.339844 17.773438 " fill-opacity="1" fill-rule="nonzero"/><g clip-path="url(#7c0ea6dc12)"><path fill="#000000" d="M 284.125 256.140625 C 280.105469 256.140625 276.113281 255.035156 272.617188 252.84375 L 271.507812 252.082031 C 269.128906 250.429688 267.132812 248.300781 265.5625 245.742188 C 260.304688 237.109375 250.007812 220.035156 240.019531 202.566406 C 237.445312 198.007812 234.917969 193.5 232.566406 189.164062 L 59.425781 225.132812 L 59.425781 222.367188 C 55.378906 212.730469 63.019531 165.839844 75.71875 124.917969 C 90.171875 78.324219 87.40625 18.484375 87.378906 17.882812 L 87.253906 15.425781 L 227.800781 15.425781 L 227.679688 17.890625 C 225.757812 56.296875 224.710938 119.9375 230.09375 127.210938 C 234.328125 132.972656 239.140625 138.65625 244.402344 144.117188 L 279.753906 180.5 L 279.707031 180.5 C 285.128906 186.328125 289.542969 192.796875 292.839844 199.785156 C 295.667969 205.648438 299.507812 214.492188 304.25 226.058594 C 305.359375 228.679688 305.921875 231.480469 305.921875 234.363281 C 305.921875 243.042969 300.742188 250.890625 292.722656 254.367188 C 289.96875 255.558594 287.035156 256.140625 284.125 256.140625 Z M 276.210938 249.492188 C 280.738281 251.867188 286.128906 252.09375 290.871094 250.058594 C 297.160156 247.332031 301.234375 241.171875 301.234375 234.371094 C 301.234375 232.121094 300.796875 229.933594 299.921875 227.867188 C 295.214844 216.367188 291.40625 207.609375 288.605469 201.816406 C 284.710938 193.570312 279.425781 186.398438 272.445312 179.871094 L 268.09375 175.8125 L 268.617188 175.8125 L 241.039062 147.390625 C 235.621094 141.777344 230.664062 135.933594 226.316406 130.007812 C 218.628906 119.613281 222.035156 37.941406 222.875 20.132812 L 92.160156 20.132812 C 92.511719 32.007812 93.226562 84.359375 80.207031 126.324219 C 65.140625 174.847656 61.863281 212.730469 63.253906 219.546875 L 235.035156 183.859375 L 235.871094 185.398438 C 238.445312 190.175781 241.25 195.1875 244.109375 200.246094 C 254.054688 217.660156 264.332031 234.6875 269.566406 243.292969 C 270.984375 245.589844 272.835938 247.449219 275.074219 248.796875 Z M 276.210938 249.492188 " fill-opacity="1" fill-rule="nonzero"/></g><path fill="#e4dac2" d="M 318.464844 357.222656 L 195.101562 357.222656 L 182.375 316.835938 L 177.867188 302.511719 C 174.578125 292.035156 169.882812 282.179688 164.203125 272.882812 C 163.785156 272.082031 163.261719 271.332031 162.746094 270.535156 C 155.792969 259.589844 147.390625 249.542969 138.042969 240.289062 C 137.945312 240.195312 137.855469 240.105469 137.761719 240.007812 L 136.914062 239.160156 C 127.992188 230.425781 124.9375 217.324219 123.855469 209.339844 C 123.816406 209.054688 123.78125 208.773438 123.746094 208.503906 C 123.246094 204.425781 121.585938 200.609375 118.996094 197.410156 C 118.96875 197.375 118.949219 197.347656 118.921875 197.3125 C 113.617188 190.78125 105.113281 178.714844 103.800781 166.878906 C 102.625 156.59375 106.808594 146.496094 123.011719 140.246094 C 123.011719 140.246094 121.179688 93.238281 169.359375 107.277344 C 184.109375 88.914062 197.585938 87.929688 207.683594 92.011719 C 219.097656 96.660156 226.234375 107.746094 226.234375 107.746094 C 258.363281 99.816406 262.726562 128.539062 262.519531 146.105469 C 262.421875 154.296875 264.300781 162.328125 267.484375 169.878906 C 267.792969 170.621094 268.101562 171.386719 268.40625 172.183594 C 270.984375 178.902344 273.007812 187.355469 271.648438 195.804688 C 268.734375 214.355469 270.144531 232.625 273.855469 250.800781 C 276.203125 262.632812 279.542969 274.375 283.203125 286.019531 Z M 318.464844 357.222656 " fill-opacity="1" fill-rule="nonzero"/><g clip-path="url(#156722b0ab)"><path fill="#000000" d="M 318.457031 359.570312 L 195.101562 359.570312 C 194.078125 359.570312 193.167969 358.902344 192.863281 357.925781 L 175.628906 303.214844 C 172.574219 293.476562 168.050781 283.679688 162.195312 274.097656 C 161.824219 273.410156 161.472656 272.875 161.105469 272.316406 L 160.769531 271.792969 C 154.28125 261.574219 146.082031 251.539062 136.390625 241.949219 L 135.253906 240.808594 C 126.203125 231.941406 122.796875 218.96875 121.539062 209.640625 L 121.425781 208.773438 C 120.980469 205.195312 119.515625 201.765625 117.179688 198.875 C 111.867188 192.335938 102.863281 179.644531 101.472656 167.132812 C 100.449219 158.164062 103.015625 146.0625 120.671875 138.65625 C 120.789062 133.421875 122.09375 117.382812 133.617188 108.386719 C 141.980469 101.847656 153.714844 100.574219 168.527344 104.601562 C 184.460938 85.515625 199.054688 85.984375 208.570312 89.835938 C 218.214844 93.769531 224.878906 101.855469 227.257812 105.105469 C 237.714844 102.839844 246.214844 104.230469 252.527344 109.234375 C 263 117.542969 265.023438 133.886719 264.875 146.132812 C 264.785156 153.550781 266.394531 161.234375 269.65625 168.964844 C 269.980469 169.734375 270.296875 170.527344 270.605469 171.34375 C 274.046875 180.300781 275.183594 188.65625 273.964844 196.179688 C 271.378906 212.683594 272.09375 230.394531 276.15625 250.324219 C 278.179688 260.535156 281.042969 271.320312 285.441406 285.3125 L 320.5625 356.171875 C 320.921875 356.902344 320.878906 357.761719 320.453125 358.449219 C 320.027344 359.152344 319.269531 359.570312 318.457031 359.570312 Z M 196.824219 354.878906 L 314.679688 354.878906 L 281.097656 287.066406 C 276.511719 272.566406 273.609375 261.628906 271.550781 251.261719 C 267.371094 230.785156 266.648438 212.523438 269.328125 195.449219 C 270.40625 188.746094 269.363281 181.207031 266.214844 173.039062 C 265.921875 172.261719 265.625 171.515625 265.320312 170.800781 C 261.804688 162.480469 260.070312 154.164062 260.171875 146.089844 C 260.304688 134.898438 258.582031 120.054688 249.59375 112.929688 C 244.171875 108.621094 236.488281 107.652344 226.796875 110.046875 C 225.828125 110.28125 224.808594 109.886719 224.265625 109.039062 C 224.195312 108.9375 217.359375 98.511719 206.804688 94.207031 C 194.828125 89.371094 182.851562 94.261719 171.199219 108.765625 C 170.597656 109.507812 169.621094 109.820312 168.714844 109.550781 C 154.742188 105.484375 143.914062 106.328125 136.527344 112.089844 C 124.8125 121.222656 125.363281 139.988281 125.371094 140.171875 C 125.40625 141.175781 124.800781 142.09375 123.863281 142.449219 C 110.664062 147.542969 104.867188 155.445312 106.140625 166.625 C 107.398438 177.953125 115.839844 189.789062 120.753906 195.839844 C 123.71875 199.507812 125.535156 203.757812 126.085938 208.222656 L 126.167969 208.878906 C 127.347656 217.625 130.4375 229.539062 138.558594 237.488281 L 139.425781 238.355469 C 149.632812 248.46875 158.058594 258.777344 164.726562 269.28125 L 165.042969 269.761719 C 165.484375 270.4375 165.910156 271.097656 166.277344 271.785156 C 172.257812 281.566406 176.9375 291.710938 180.105469 301.816406 Z M 196.824219 354.878906 " fill-opacity="1" fill-rule="nonzero"/></g><path fill="#000000" d="M 182.890625 164.820312 C 191.199219 160.203125 201.632812 159.617188 210.402344 163.277344 C 214.9375 165.171875 218.972656 168.097656 223.390625 170.25 C 228.71875 172.839844 234.582031 174.296875 239.667969 177.332031 C 244.753906 180.367188 249.160156 185.648438 248.734375 191.558594 C 248.246094 198.320312 241.652344 203.15625 235.0625 204.742188 C 228.46875 206.316406 221.554688 205.621094 214.84375 206.566406 C 208.730469 207.417969 202.851562 209.632812 197.503906 212.710938 C 188.824219 217.699219 179.890625 225.277344 170.164062 222.925781 C 163.144531 221.226562 158.050781 213.738281 159.050781 206.585938 C 159.800781 201.214844 163.371094 196.757812 166.367188 192.242188 C 171.300781 184.78125 170.550781 171.675781 182.890625 164.820312 Z M 182.890625 164.820312 " fill-opacity="1" fill-rule="nonzero"/><path fill="#000000" d="M 173.855469 225.699219 C 172.457031 225.699219 171.046875 225.539062 169.613281 225.195312 C 161.472656 223.222656 155.566406 214.542969 156.722656 206.246094 C 157.433594 201.15625 160.273438 196.996094 163.027344 192.972656 L 164.410156 190.925781 C 165.878906 188.71875 166.835938 185.765625 167.859375 182.640625 C 170.019531 176.023438 172.707031 167.792969 181.75 162.769531 C 190.621094 157.839844 201.945312 157.199219 211.304688 161.117188 C 214.042969 162.257812 216.578125 163.738281 219.027344 165.171875 C 220.800781 166.210938 222.578125 167.25 224.421875 168.144531 C 226.550781 169.175781 228.746094 170.015625 231.070312 170.90625 C 234.347656 172.15625 237.726562 173.445312 240.878906 175.316406 C 246.160156 178.460938 251.609375 184.429688 251.085938 191.730469 C 250.503906 199.875 242.898438 205.277344 235.621094 207.027344 C 231.5625 207.996094 227.429688 208.15625 223.4375 208.304688 C 220.574219 208.417969 217.871094 208.511719 215.179688 208.890625 C 209.644531 209.667969 204.097656 211.636719 198.6875 214.75 C 197.070312 215.675781 195.445312 216.695312 193.808594 217.730469 C 187.777344 221.492188 181.074219 225.699219 173.855469 225.699219 Z M 198.308594 163.25 C 193.332031 163.25 188.34375 164.46875 184.035156 166.863281 C 176.59375 171 174.417969 177.65625 172.320312 184.09375 C 171.199219 187.527344 170.136719 190.773438 168.328125 193.515625 L 166.902344 195.613281 C 164.34375 199.351562 161.933594 202.890625 161.367188 206.886719 C 160.550781 212.800781 164.914062 219.222656 170.714844 220.625 C 177.632812 222.296875 184.273438 218.140625 191.296875 213.730469 C 192.980469 212.667969 194.660156 211.617188 196.335938 210.660156 C 202.265625 207.253906 208.386719 205.085938 214.511719 204.222656 C 217.4375 203.8125 220.390625 203.703125 223.246094 203.597656 C 227.191406 203.453125 230.90625 203.308594 234.519531 202.449219 C 239.945312 201.148438 245.972656 197.128906 246.386719 191.386719 C 246.765625 186.210938 242.539062 181.773438 238.464844 179.34375 C 235.667969 177.675781 232.613281 176.515625 229.386719 175.28125 C 227.066406 174.394531 224.664062 173.476562 222.359375 172.355469 C 220.402344 171.40625 218.53125 170.3125 216.652344 169.21875 C 214.230469 167.800781 211.929688 166.464844 209.488281 165.445312 C 205.984375 163.980469 202.148438 163.25 198.308594 163.25 Z M 182.890625 164.820312 L 182.941406 164.820312 Z M 182.890625 164.820312 " fill-opacity="1" fill-rule="nonzero"/><path fill="#000000" d="M 237.273438 125.738281 C 253.421875 127.921875 248.746094 164.324219 232.902344 155.488281 C 222.488281 149.675781 221.816406 123.652344 237.273438 125.738281 Z M 237.273438 125.738281 " fill-opacity="1" fill-rule="nonzero"/><path fill="#000000" d="M 237.644531 159.210938 C 235.753906 159.210938 233.761719 158.652344 231.761719 157.53125 C 223.960938 153.1875 221.265625 140.558594 224.058594 132.175781 C 226.199219 125.730469 231.15625 122.546875 237.589844 123.414062 L 237.597656 123.414062 C 243.007812 124.140625 247.101562 128.195312 248.816406 134.527344 C 251.09375 142.925781 248.699219 153.078125 243.476562 157.152344 C 241.726562 158.523438 239.746094 159.210938 237.644531 159.210938 Z M 235.566406 127.960938 C 232.140625 127.960938 229.769531 129.867188 228.511719 133.652344 C 226.191406 140.625 228.988281 150.605469 234.046875 153.429688 C 236.625 154.867188 238.753906 154.875 240.585938 153.449219 C 244.316406 150.53125 246.050781 142.265625 244.28125 135.753906 C 243.578125 133.152344 241.691406 128.699219 236.964844 128.058594 C 236.476562 127.996094 236.007812 127.960938 235.566406 127.960938 Z M 235.566406 127.960938 " fill-opacity="1" fill-rule="nonzero"/><path fill="#000000" d="M 194.804688 107.5 C 208.007812 106.261719 213.78125 143.253906 199.128906 144.640625 C 185.4375 145.925781 178.949219 108.992188 194.804688 107.5 Z M 194.804688 107.5 " fill-opacity="1" fill-rule="nonzero"/><path fill="#000000" d="M 198.441406 147.019531 C 194.820312 147.019531 191.378906 144.957031 188.660156 141.136719 C 183.125 133.335938 181.488281 120.128906 185.082031 112.28125 C 187.035156 108.023438 190.320312 105.566406 194.578125 105.160156 C 203.09375 104.332031 208.894531 115.496094 209.921875 126.398438 C 211.027344 138.191406 206.878906 146.261719 199.34375 146.972656 C 199.039062 147.007812 198.734375 147.019531 198.441406 147.019531 Z M 195.019531 109.839844 C 192.453125 110.082031 190.601562 111.519531 189.347656 114.246094 C 186.472656 120.527344 187.964844 132.050781 192.488281 138.425781 C 193.855469 140.34375 196.15625 142.59375 198.902344 142.304688 C 204.242188 141.804688 205.9375 134.183594 205.246094 126.855469 C 204.441406 118.277344 200.214844 109.308594 195.019531 109.839844 Z M 195.019531 109.839844 " fill-opacity="1" fill-rule="nonzero"/><path fill="#000000" d="M 123.074219 162.886719 C 112.398438 175.199219 139.96875 199.421875 146.019531 182.308594 C 149.992188 171.070312 133.285156 151.09375 123.074219 162.886719 Z M 123.074219 162.886719 " fill-opacity="1" fill-rule="nonzero"/><path fill="#000000" d="M 138.574219 190.570312 C 132.0625 190.570312 123.953125 184.671875 120.222656 177.105469 C 117.324219 171.214844 117.71875 165.472656 121.289062 161.34375 C 125.5625 156.414062 131.386719 155.554688 137.238281 158.96875 C 144.878906 163.414062 151.195312 174.675781 148.230469 183.09375 C 146.613281 187.65625 143.40625 190.308594 139.183594 190.554688 C 138.984375 190.5625 138.78125 190.570312 138.574219 190.570312 Z M 124.839844 164.421875 C 121.714844 168.019531 123.246094 172.609375 124.433594 175.035156 C 127.414062 181.085938 134.257812 186.164062 138.910156 185.867188 C 141.214844 185.730469 142.820312 184.3125 143.796875 181.53125 C 145.730469 176.066406 141.230469 166.726562 134.875 163.03125 C 130.996094 160.765625 127.617188 161.226562 124.839844 164.421875 Z M 124.839844 164.421875 " fill-opacity="1" fill-rule="nonzero"/><path fill="#000000" d="M 145.230469 122.835938 C 134.503906 130.632812 154.628906 162.203125 166.539062 153.550781 C 177.652344 145.472656 158.105469 113.464844 145.230469 122.835938 Z M 145.230469 122.835938 " fill-opacity="1" fill-rule="nonzero"/><path fill="#000000" d="M 162.023438 157.398438 C 160.371094 157.398438 158.636719 157 156.855469 156.210938 C 148.835938 152.644531 140.933594 141.183594 139.929688 131.691406 C 139.425781 126.882812 140.773438 123.164062 143.839844 120.933594 C 147.292969 118.414062 151.390625 118.097656 155.671875 120 C 163.550781 123.507812 171.058594 134.5 172.058594 144.011719 C 172.589844 149.058594 171.113281 153.117188 167.90625 155.453125 C 166.140625 156.746094 164.148438 157.398438 162.023438 157.398438 Z M 150.328125 123.472656 C 148.992188 123.472656 147.761719 123.894531 146.605469 124.734375 C 144.546875 126.234375 144.382812 129.078125 144.601562 131.203125 C 145.421875 138.972656 152.304688 149.042969 158.761719 151.921875 C 161.273438 153.042969 163.363281 152.953125 165.15625 151.660156 C 167.453125 149.988281 167.644531 146.847656 167.398438 144.507812 C 166.578125 136.738281 160.082031 127.109375 153.769531 124.292969 C 152.550781 123.742188 151.410156 123.472656 150.328125 123.472656 Z M 145.222656 122.835938 L 145.269531 122.835938 Z M 145.222656 122.835938 " fill-opacity="1" fill-rule="nonzero"/><path fill="#ffdab9" d="M 207.148438 284.652344 C 226.453125 249.742188 214.675781 218.410156 189.527344 238.789062 C 206.84375 203.101562 175.339844 187.292969 157.75 210.441406 C 167.617188 185.667969 151.933594 179.644531 139.273438 181.863281 C 130.484375 183.402344 122.0625 192.324219 122.0625 192.324219 C 122.0625 192.324219 118.9375 156.847656 86.9375 188.214844 C 72.324219 202.53125 70.960938 207.6875 64.175781 220.640625 C 54.050781 239.945312 81.941406 253.535156 89.347656 241.136719 C 81.453125 251.566406 84.464844 264.121094 92.304688 270.507812 C 103.730469 279.8125 116.5625 271.394531 116.5625 271.394531 C 116.5625 271.394531 106.5 286.992188 119.554688 297.460938 C 126.226562 302.800781 136.617188 301.636719 142.046875 295.84375 C 132.503906 314.730469 167.128906 357.003906 207.148438 284.652344 Z M 207.148438 284.652344 " fill-opacity="1" fill-rule="nonzero"/><path fill="#000000" d="M 162.023438 327.613281 C 157.136719 327.613281 153.496094 326.167969 151.472656 325.101562 C 142.6875 320.457031 137.417969 310.414062 138.117188 301.464844 C 131.71875 304.390625 123.664062 303.773438 118.082031 299.289062 C 109.4375 292.367188 109.566406 282.949219 111.792969 276.101562 C 105.925781 277.871094 97.910156 278.105469 90.820312 272.332031 C 84.253906 266.984375 80.617188 257.386719 83.304688 247.980469 C 79.050781 248.832031 74.195312 247.765625 70.117188 245.472656 C 61.792969 240.820312 56.09375 231 62.097656 219.550781 C 63.082031 217.671875 63.957031 215.960938 64.769531 214.355469 C 69.613281 204.808594 72.546875 199.042969 85.300781 186.550781 C 96.71875 175.351562 106.160156 171.035156 113.394531 173.699219 C 119.707031 176.03125 122.453125 183.011719 123.617188 187.691406 C 127.058594 184.757812 132.8125 180.621094 138.882812 179.5625 C 147.617188 178.019531 155.359375 180.246094 159.601562 185.46875 C 162.078125 188.511719 164.230469 193.714844 162.65625 202.226562 C 171.328125 195.773438 180.855469 196.15625 187.167969 200.039062 C 194.605469 204.609375 200.339844 215.648438 194.628906 232.601562 C 201.484375 229.058594 207.730469 229.125 212.355469 233 C 222.507812 241.503906 221.148438 264.203125 209.203125 285.800781 C 190.050781 320.414062 172.933594 327.613281 162.023438 327.613281 Z M 142.042969 293.496094 C 142.511719 293.496094 142.984375 293.632812 143.382812 293.921875 C 144.339844 294.589844 144.664062 295.863281 144.132812 296.902344 C 140.308594 304.472656 145.027344 316.386719 153.660156 320.953125 C 159.25 323.910156 179.421875 329.914062 205.089844 283.515625 C 216.871094 262.207031 216.464844 242.570312 209.328125 236.585938 C 205.089844 233.027344 198.578125 234.46875 191 240.613281 C 190.140625 241.308594 188.921875 241.308594 188.066406 240.628906 C 187.207031 239.945312 186.933594 238.753906 187.414062 237.765625 C 196.265625 219.53125 191.488281 208.195312 184.703125 204.03125 C 178.425781 200.175781 167.894531 200.984375 159.621094 211.863281 C 158.90625 212.800781 157.605469 213.0625 156.59375 212.484375 C 155.566406 211.90625 155.132812 210.660156 155.566406 209.574219 C 159.351562 200.082031 159.484375 192.765625 155.953125 188.414062 C 152.234375 183.84375 145.105469 183.230469 139.679688 184.179688 C 131.78125 185.566406 123.84375 193.867188 123.769531 193.949219 C 123.132812 194.617188 122.164062 194.863281 121.289062 194.554688 C 120.414062 194.25 119.804688 193.464844 119.71875 192.542969 C 119.714844 192.425781 118.5625 180.609375 111.757812 178.097656 C 106.445312 176.15625 98.445312 180.230469 88.582031 189.894531 C 76.386719 201.851562 73.742188 207.046875 68.953125 216.476562 C 68.132812 218.101562 67.253906 219.828125 66.253906 221.734375 C 61.410156 230.972656 66.542969 238.089844 72.40625 241.378906 C 77.117188 244.019531 83.414062 244.621094 86.59375 240.957031 C 86.875 240.546875 87.164062 240.132812 87.472656 239.726562 C 88.222656 238.726562 89.636719 238.5 90.652344 239.195312 C 91.695312 239.890625 91.996094 241.273438 91.363281 242.347656 C 91.03125 242.898438 90.683594 243.402344 90.296875 243.871094 C 84.199219 253.203125 87.386719 263.480469 93.777344 268.695312 C 103.757812 276.816406 115.148438 269.515625 115.265625 269.441406 C 116.195312 268.828125 117.421875 268.957031 118.207031 269.734375 C 118.992188 270.511719 119.128906 271.738281 118.53125 272.675781 C 118.164062 273.238281 109.796875 286.648438 121.007812 295.636719 C 126.492188 300.027344 135.515625 299.367188 140.320312 294.246094 C 140.78125 293.75 141.414062 293.496094 142.042969 293.496094 Z M 207.148438 284.652344 L 207.195312 284.652344 Z M 207.148438 284.652344 " fill-opacity="1" fill-rule="nonzero"/><path fill="#000000" d="M 88.335938 244.9375 C 87.875 244.9375 87.40625 244.800781 87 244.515625 C 85.933594 243.78125 85.664062 242.3125 86.402344 241.246094 C 98.226562 224.171875 120.53125 190.707031 120.761719 190.367188 C 121.484375 189.28125 122.949219 189 124.015625 189.714844 C 125.097656 190.4375 125.386719 191.890625 124.667969 192.972656 C 124.441406 193.308594 102.105469 226.808594 90.261719 243.917969 C 89.8125 244.585938 89.078125 244.9375 88.335938 244.9375 Z M 88.335938 244.9375 " fill-opacity="1" fill-rule="nonzero"/><path fill="#ffdab9" d="M 116.554688 271.402344 C 131.890625 250.410156 158.855469 208.746094 158.855469 208.746094 " fill-opacity="1" fill-rule="nonzero"/><path fill="#000000" d="M 116.554688 273.75 C 116.074219 273.75 115.585938 273.605469 115.171875 273.292969 C 114.125 272.53125 113.898438 271.0625 114.660156 270.011719 C 129.785156 249.3125 156.613281 207.878906 156.882812 207.464844 C 157.589844 206.371094 159.050781 206.074219 160.128906 206.769531 C 161.222656 207.480469 161.527344 208.933594 160.824219 210.019531 C 160.558594 210.441406 133.652344 251.976562 118.449219 272.785156 C 117.992188 273.417969 117.277344 273.75 116.554688 273.75 Z M 116.554688 273.75 " fill-opacity="1" fill-rule="nonzero"/><path fill="#ffdab9" d="M 142.042969 295.84375 C 160.378906 276.597656 178.78125 260.339844 190.566406 236.511719 " fill-opacity="1" fill-rule="nonzero"/><path fill="#000000" d="M 142.042969 298.191406 C 141.457031 298.191406 140.878906 297.976562 140.425781 297.542969 C 139.480469 296.648438 139.445312 295.160156 140.339844 294.226562 C 143.570312 290.839844 146.804688 287.542969 150 284.277344 C 164.867188 269.109375 178.914062 254.785156 188.460938 235.472656 C 189.039062 234.308594 190.449219 233.839844 191.605469 234.40625 C 192.769531 234.984375 193.242188 236.386719 192.671875 237.550781 C 182.796875 257.527344 168.5 272.117188 153.355469 287.5625 C 150.175781 290.804688 146.957031 294.085938 143.75 297.460938 C 143.28125 297.949219 142.660156 298.191406 142.042969 298.191406 Z M 142.042969 298.191406 " fill-opacity="1" fill-rule="nonzero"/><g clip-path="url(#f4db1005a3)"><g clip-path="url(#3f40c754e7)"><g clip-path="url(#ee90fb248a)"><path fill="#000000" d="M 326.652344 72.386719 C 324.949219 71.285156 323.5 70.820312 320.769531 70.503906 C 317.847656 70.164062 315.925781 70.277344 312.800781 70.976562 C 310.613281 71.464844 309.589844 71.828125 307.375 72.902344 L 305.777344 73.675781 L 305.828125 71.753906 C 305.855469 70.699219 305.847656 69.457031 305.8125 69.003906 C 305.734375 67.914062 305.074219 64.625 304.699219 63.453125 C 303.761719 60.5 301.734375 57.027344 299.949219 55.316406 C 299.121094 54.523438 297.589844 53.582031 296.640625 53.285156 C 294.488281 52.609375 292.566406 52.921875 290.949219 54.210938 C 290.292969 54.738281 290.195312 54.859375 289.179688 56.417969 L 288.105469 58.066406 L 287.769531 59.285156 C 286.617188 63.457031 286.242188 69.9375 286.8125 75.769531 C 287.160156 79.320312 288.082031 83.960938 288.976562 86.648438 C 289.359375 87.792969 290.960938 91.507812 291.542969 92.59375 L 291.960938 93.375 L 292.734375 93.800781 C 293.382812 94.15625 293.636719 94.238281 294.320312 94.300781 C 295.402344 94.402344 299.597656 94.363281 300.851562 94.238281 C 303.679688 93.964844 308.285156 92.921875 311.671875 91.796875 C 317.0625 90.003906 322.691406 87.136719 325.929688 84.539062 C 327.320312 83.425781 327.753906 82.925781 328.667969 81.402344 C 329.3125 80.332031 329.488281 79.960938 329.679688 79.25 C 330.386719 76.632812 329.257812 74.074219 326.652344 72.386719 Z M 326.652344 72.386719 " fill-opacity="1" fill-rule="nonzero"/></g></g></g></svg>